#!OML:ASF I:\Random Stuff\random\construction\7_22_03\Session 2\subj1.ASF
:FULLY-SPECIFIED
:DEGREES
976
root 4.90038 17.3578 -12.0379 4.81967 -3.14384 -3.82722
lowerback 6.466 3.52324 7.64892
upperback -0.0701357 5.29361 0.861544
thorax -3.08791 2.51656 -3.82711
lowerneck -20.7944 5.91503 6.3626
upperneck 25.9789 6.81084 -1.82557
head 12.3432 3.4359 -0.608753
rclavicle -8.49804e-015 -8.34896e-015
rhumerus -26.4623 22.7328 -93.4592
rradius 81.3049
rwrist -0.85006
rhand -16.3185 20.5632
rfingers 7.12502
rthumb 9.89286 -9.18441
lclavicle -8.49804e-015 -8.34896e-015
lhumerus -29.9185 -7.66059 86.8613
lradius 50.4463
lwrist 27.0365
lhand -20.4052 56.03
lfingers 7.12502
lthumb 5.94863 445.927
rfemur 8.69901 2.02052 26.2776
rtibia -2.54444e-014
rfoot -8.59851 -6.88182
rtoes 0.532961
lfemur -28.3753 -18.9459 -3.67073
ltibia 20.6967
lfoot -5.32385 2.99166
ltoes -38.7427
977
root 4.84314 17.3576 -12.2053 5.03381 -2.2079 -4.01246
lowerback 6.56234 3.53662 8.20589
upperback -0.0467058 5.36684 1.04589
thorax -3.07731 2.54566 -3.95338
lowerneck -21.1115 5.7658 6.49147
upperneck 25.5255 6.73019 -2.53773
head 12.2567 3.31304 -0.907889
rclavicle 4.02539e-015 -4.77083e-015
rhumerus -25.8259 23.264 -92.9099
rradius 80.4538
rwrist -1.29216
rhand -16.1249 20.5097
rfingers 7.12502
rthumb 10.0797 -9.22892
lclavicle 4.02539e-015 -4.77083e-015
lhumerus -30.4484 -6.38696 86.9881
lradius 50.7857
lwrist 27.9811
lhand -20.6406 56.5329
lfingers 7.12502
lthumb 5.72136 446.436
rfemur 7.94397 1.95104 26.8528
rtibia -3.18055e-014
rfoot -8.53758 -7.53913
rtoes 0.604176
lfemur -29.3724 -19.7162 -2.65892
ltibia 20.5954
lfoot -6.70311 5.05079
ltoes -38.015
978
root 4.78753 17.3723 -12.3699 5.19699 -1.23772 -4.01532
lowerback 6.67407 3.49559 8.51688
upperback -0.0284079 5.35121 1.19523
thorax -3.1099 2.53244 -3.97622
lowerneck -21.1946 5.75241 6.50186
upperneck 25.074 6.79404 -2.90162
head 12.1138 3.29298 -1.03584
rclavicle -2.01766e-014 -1.19271e-014
rhumerus -25.1939 23.9943 -92.3465
rradius 79.3582
rwrist -2.03651
rhand -16.2267 20.379
rfingers 7.12502
rthumb 9.98146 -9.36437
lclavicle -2.01766e-014 -1.19271e-014
lhumerus -31.0234 -5.29144 87.1703
lradius 50.9344
lwrist 29.7056
lhand -21.3676 57.0277
lfingers 7.12502
lthumb 5.01944 446.948
rfemur 7.18805 1.84046 27.1798
rtibia -7.95139e-015
rfoot -8.17893 -8.11062
rtoes 1.41408
lfemur -30.1803 -19.8432 -2.16267
ltibia 20.4638
lfoot -8.29637 6.82066
ltoes -38.1103
979
root 4.73208 17.3909 -12.5258 5.30458 -0.303089 -3.95795
lowerback 6.78737 3.434 8.63661
upperback -0.00166024 5.29485 1.36316
thorax -3.15842 2.50176 -3.87175
lowerneck -20.9962 6.00919 6.29449
upperneck 24.6024 7.16902 -2.70347
head 11.8935 3.47033 -0.871068
rclavicle 7.03698e-014 7.95139e-015
rhumerus -24.5616 24.8873 -91.7274
rradius 78.0864
rwrist -2.92738
rhand -16.5955 20.3164
rfingers 7.12502
rthumb 9.62561 -9.44368
lclavicle 7.03698e-014 7.95139e-015
lhumerus -31.5733 -4.2534 87.3242
lradius 50.7344
lwrist 31.3919
lhand -21.5982 57.3424
lfingers 7.12502
lthumb 4.79672 447.268
rfemur 6.50438 1.7601 27.4033
rtibia -3.65764e-014
rfoot -7.84728 -8.60325
rtoes 3.45804
lfemur -30.756 -19.2567 -2.13103
ltibia 20.3437
lfoot -9.89201 8.3015
ltoes -37.8463
980
root 4.67392 17.4104 -12.6652 5.26016 0.583896 -3.86292
lowerback 6.90513 3.37436 8.59514
upperback 0.0849126 5.2251 1.5201
thorax -3.16105 2.47084 -3.68688
lowerneck -21.1739 6.00464 6.31433
upperneck 24.3349 7.17719 -2.85779
head 11.8324 3.45341 -0.927574
rclavicle 2.46493e-014 -2.54444e-014
rhumerus -23.9797 25.0881 -91.231
rradius 76.9641
rwrist -3.29017
rhand -16.6395 20.0606
rfingers 7.12502
rthumb 9.58321 -9.7015
lclavicle 2.46493e-014 -2.54444e-014
lhumerus -32.0883 -3.43813 87.4127
lradius 50.1732
lwrist 32.8753
lhand -21.7781 57.607
lfingers 7.12502
lthumb 4.62299 447.537
rfemur 6.0617 1.70358 27.6008
rtibia -1.90833e-014
rfoot -7.57197 -9.23178
rtoes 5.27911
lfemur -30.9882 -18.1999 -2.50418
ltibia 20.3142
lfoot -11.3431 9.77754
ltoes -35.0914
981
root 4.62052 17.4344 -12.7898 5.07389 1.47079 -3.59735
lowerback 7.02834 3.33005 8.39444
upperback 0.219858 5.15792 1.60474
thorax -3.12199 2.44648 -3.48797
lowerneck -21.4736 5.91975 6.35295
upperneck 24.2873 7.03077 -2.89604
head 11.8678 3.3822 -0.96609
rclavicle -9.18385e-014 -4.13472e-014
rhumerus -23.4872 24.4885 -90.8532
rradius 75.9847
rwrist -3.07391
rhand -16.4057 19.5469
rfingers 7.12502
rthumb 9.80878 -10.2046
lclavicle -9.18385e-014 -4.13472e-014
lhumerus -32.5905 -2.93283 87.5268
lradius 49.3413
lwrist 34.122
lhand -21.9666 57.9303
lfingers 7.12502
lthumb 4.44106 447.864
rfemur 5.85569 1.6142 27.6049
rtibia -3.02153e-014
rfoot -7.31397 -9.96303
rtoes 5.79254
lfemur -30.899 -16.8607 -3.37259
ltibia 20.4117
lfoot -12.4592 11.2135
ltoes -32.4532
982
root 4.57325 17.4635 -12.9049 4.85614 2.42765 -3.21277
lowerback 7.1186 3.24225 8.08833
upperback 0.328816 5.02148 1.65121
thorax -3.10436 2.38738 -3.26425
lowerneck -21.6394 5.78248 6.35711
upperneck 24.1993 6.81119 -2.87055
head 11.8535 3.28568 -0.991778
rclavicle 1.98785e-016 1.90833e-014
rhumerus -23.1361 23.9452 -90.532
rradius 74.891
rwrist -2.99912
rhand -16.4536 19.2259
rfingers 7.12502
rthumb 9.76256 -10.5278
lclavicle 1.98785e-016 1.90833e-014
lhumerus -33.0731 -2.51111 87.6204
lradius 48.2405
lwrist 34.9748
lhand -21.963 58.2565
lfingers 7.12502
lthumb 4.44445 448.19
rfemur 5.73394 1.44329 27.459
rtibia -1.43125e-014
rfoot -7.17499 -10.6367
rtoes 5.67577
lfemur -30.6331 -15.5528 -4.47364
ltibia 20.5771
lfoot -12.849 12.4361
ltoes -32.614
983
root 4.52811 17.4963 -13.0133 4.66274 3.43837 -2.83055
lowerback 7.17082 3.12999 7.77779
upperback 0.397902 4.84995 1.67298
thorax -3.10763 2.30879 -3.05941
lowerneck -21.6521 5.63983 6.22379
upperneck 23.9788 6.589 -2.67495
head 11.7461 3.19985 -0.936803
rclavicle -1.68967e-015 -3.18055e-014
rhumerus -23.0363 23.635 -90.2524
rradius 73.8399
rwrist -3.4004
rhand -16.7411 19.0287
rfingers 7.12502
rthumb 9.48519 -10.7378
lclavicle -1.68967e-015 -3.18055e-014
lhumerus -33.4288 -2.15444 87.6192
lradius 46.7894
lwrist 35.1093
lhand -21.7639 58.4033
lfingers 7.12502
lthumb 4.63679 448.333
rfemur 5.61151 1.22491 27.2895
rtibia -2.70347e-014
rfoot -7.21363 -11.2223
rtoes 7.00042
lfemur -30.2669 -14.3224 -5.54288
ltibia 20.7722
lfoot -12.5156 12.9344
ltoes -33.4657
984
root 4.48276 17.5273 -13.114 4.48093 4.46368 -2.46235
lowerback 7.187 3.03384 7.41923
upperback 0.454243 4.69339 1.69821
thorax -3.10478 2.23817 -2.82323
lowerneck -21.6846 5.4667 6.0078
upperneck 23.8121 6.33584 -2.41431
head 11.6572 3.10063 -0.848844
rclavicle -5.61567e-014 4.77083e-015
rhumerus -23.2224 23.3161 -89.9915
rradius 73.0214
rwrist -4.09821
rhand -16.9347 18.7146
rfingers 7.12502
rthumb 9.29838 -11.0604
lclavicle -5.61567e-014 4.77083e-015
lhumerus -33.6358 -1.92647 87.5934
lradius 45.1013
lwrist 34.6157
lhand -21.5324 58.3282
lfingers 7.12502
lthumb 4.86025 448.252
rfemur 5.52733 0.994746 27.1289
rtibia 2.38542e-014
rfoot -7.17637 -11.9309
rtoes 7.87697
lfemur -29.8039 -13.1282 -6.52783
ltibia 21.0297
lfoot -11.9881 12.3961
ltoes -33.9853
985
root 4.4405 17.5529 -13.2041 4.274 5.475 -2.16249
lowerback 7.17082 2.91062 7.07541
upperback 0.486893 4.50212 1.76438
thorax -3.11214 2.14932 -2.54845
lowerneck -21.7086 5.24639 5.72251
upperneck 23.7668 6.02484 -2.0795
head 11.607 2.97902 -0.731331
rclavicle 2.08724e-014 -4.13472e-014
rhumerus -23.6135 22.6964 -89.877
rradius 72.3756
rwrist -4.73273
rhand -17.0275 18.3213
rfingers 7.12502
rthumb 9.20884 -11.4576
lclavicle 2.08724e-014 -4.13472e-014
lhumerus -33.811 -1.64718 87.5393
lradius 43.3195
lwrist 33.8114
lhand -21.5241 58.2086
lfingers 7.12502
lthumb 4.86831 448.133
rfemur 5.52073 0.781232 27.0263
rtibia -4.77083e-015
rfoot -7.08379 -12.7202
rtoes 8.39862
lfemur -29.2293 -12.255 -7.27484
ltibia 21.3731
lfoot -11.6925 11.4368
ltoes -34.0391
